<svg xmlns="http://www.w3.org/2000/svg" xmlns:xlink="http://www.w3.org/1999/xlink" width="250" zoomAndPan="magnify" viewBox="0 0 187.5 187.499992" height="250" preserveAspectRatio="xMidYMid meet" version="1.0"><defs><clipPath id="bcd3bc2803"><path d="M 7 90 L 180 90 L 180 159.617188 L 7 159.617188 Z M 7 90 " clip-rule="nonzero"/></clipPath><clipPath id="6cc8121be3"><path d="M 22 27.222656 L 178 27.222656 L 178 141 L 22 141 Z M 22 27.222656 " clip-rule="nonzero"/></clipPath></defs><g clip-path="url(#bcd3bc2803)"><path fill="#ffffff" d="M 78.417969 102.84375 L 7.046875 158.707031 L 82.878906 90.308594 L 107.730469 114.949219 L 105.609375 107.304688 L 115.167969 117.710938 L 129.1875 107.304688 L 179.953125 159.769531 L 160.625 147.238281 L 139.382812 159.34375 L 148.730469 139.804688 L 142.144531 144.6875 L 129.1875 115.375 L 94.5625 147.875 L 104.332031 124.933594 L 60.574219 153.824219 L 87.976562 125.570312 L 80.117188 112.824219 L 93.710938 114.738281 Z M 78.417969 102.84375 " fill-opacity="1" fill-rule="evenodd"/></g><g clip-path="url(#6cc8121be3)"><path fill="#ffffff" d="M 159.988281 55.683594 C 145.753906 38.265625 124.089844 27.222656 99.871094 27.222656 C 77.144531 27.222656 56.75 36.992188 42.519531 52.5 C 63.972656 52.925781 77.992188 53.347656 77.992188 54.199219 C 77.992188 54.835938 62.488281 55.472656 39.546875 55.898438 C 36.996094 59.085938 34.660156 62.484375 32.535156 66.09375 C 73.320312 66.09375 105.394531 66.945312 105.394531 68.003906 C 105.394531 69.066406 72.046875 69.917969 30.410156 69.917969 C 25.101562 80.539062 22.128906 92.433594 22.128906 104.964844 C 22.128906 114.523438 23.828125 123.660156 27.011719 132.15625 L 83.089844 81.601562 L 107.945312 106.242188 L 105.820312 98.59375 L 115.167969 109.003906 L 129.1875 98.59375 L 169.332031 140.015625 C 174.644531 129.394531 177.617188 117.5 177.617188 104.964844 C 177.617188 87.546875 171.882812 71.40625 162.109375 58.445312 C 146.390625 58.023438 136.621094 57.597656 136.621094 56.960938 C 136.621094 56.324219 145.542969 55.898438 159.773438 55.472656 Z M 159.988281 55.683594 " fill-opacity="1" fill-rule="evenodd"/></g></svg>