<svg xmlns="http://www.w3.org/2000/svg" xmlns:xlink="http://www.w3.org/1999/xlink" width="500" zoomAndPan="magnify" viewBox="0 0 375 112.499997" height="150" preserveAspectRatio="xMidYMid meet" version="1.0"><defs><g/><clipPath id="183d1621e2"><path d="M 2 2 L 369 2 L 369 112.003906 L 2 112.003906 Z M 2 2 " clip-rule="nonzero"/></clipPath><clipPath id="283d94aa0b"><path d="M 0.0234375 51 L 130 51 L 130 103.414062 L 0.0234375 103.414062 Z M 0.0234375 51 " clip-rule="nonzero"/></clipPath><clipPath id="bb3332b68f"><path d="M 11 4.261719 L 129 4.261719 L 129 89 L 11 89 Z M 11 4.261719 " clip-rule="nonzero"/></clipPath><clipPath id="17c9f6ec97"><rect x="0" width="367" y="0" height="111"/></clipPath></defs><g clip-path="url(#183d1621e2)"><g transform="matrix(1, 0, 0, 1, 2, 2)"><g clip-path="url(#17c9f6ec97)"><g clip-path="url(#283d94aa0b)"><path fill="#002349" d="M 53.746094 61.011719 L 0.183594 102.9375 L 57.09375 51.605469 L 75.742188 70.097656 L 74.148438 64.359375 L 81.324219 72.171875 L 91.84375 64.359375 L 129.945312 103.734375 L 115.4375 94.328125 L 99.496094 103.414062 L 106.511719 88.75 L 101.570312 92.417969 L 91.84375 70.417969 L 65.859375 94.808594 L 73.191406 77.589844 L 40.355469 99.269531 L 60.917969 78.070312 L 55.019531 68.503906 L 65.222656 69.9375 Z M 53.746094 61.011719 " fill-opacity="1" fill-rule="evenodd"/></g><g clip-path="url(#bb3332b68f)"><path fill="#002349" d="M 114.960938 25.621094 C 104.277344 12.550781 88.019531 4.261719 69.84375 4.261719 C 52.789062 4.261719 37.484375 11.59375 26.804688 23.230469 C 42.90625 23.550781 53.425781 23.867188 53.425781 24.507812 C 53.425781 24.984375 41.789062 25.464844 24.574219 25.78125 C 22.660156 28.171875 20.90625 30.722656 19.3125 33.433594 C 49.917969 33.433594 73.992188 34.070312 73.992188 34.867188 C 73.992188 35.664062 48.960938 36.304688 17.71875 36.304688 C 13.734375 44.273438 11.5 53.199219 11.5 62.605469 C 11.5 69.78125 12.777344 76.632812 15.167969 83.011719 L 57.253906 45.070312 L 75.902344 63.5625 L 74.308594 57.824219 L 81.324219 65.636719 L 91.84375 57.824219 L 121.972656 88.910156 C 125.957031 80.9375 128.191406 72.011719 128.191406 62.605469 C 128.191406 49.535156 123.886719 37.417969 116.554688 27.695312 C 104.757812 27.375 97.421875 27.058594 97.421875 26.578125 C 97.421875 26.101562 104.117188 25.78125 114.800781 25.464844 Z M 114.960938 25.621094 " fill-opacity="1" fill-rule="evenodd"/></g><g fill="#002349" fill-opacity="1"><g transform="translate(144.302674, 46.212239)"><g><path d="M 11.21875 -11.96875 L 11.21875 -4.6875 C 11.21875 -3.570312 11.335938 -2.753906 11.578125 -2.234375 C 11.816406 -1.722656 12.234375 -1.382812 12.828125 -1.21875 C 13.429688 -1.050781 14.390625 -0.953125 15.703125 -0.921875 L 15.703125 0 C 12.265625 -0.0820312 9.710938 -0.125 8.046875 -0.125 C 6.648438 -0.125 4.890625 -0.0976562 2.765625 -0.046875 L 1.421875 0 L 1.421875 -0.84375 C 2.347656 -0.894531 3.023438 -1.003906 3.453125 -1.171875 C 3.890625 -1.335938 4.179688 -1.65625 4.328125 -2.125 C 4.484375 -2.601562 4.5625 -3.375 4.5625 -4.4375 L 4.5625 -25.203125 C 4.5625 -26.265625 4.484375 -27.03125 4.328125 -27.5 C 4.179688 -27.976562 3.890625 -28.300781 3.453125 -28.46875 C 3.023438 -28.632812 2.347656 -28.75 1.421875 -28.8125 L 1.421875 -29.640625 C 2.847656 -29.554688 4.96875 -29.515625 7.78125 -29.515625 L 12.4375 -29.5625 C 13 -29.59375 13.640625 -29.609375 14.359375 -29.609375 C 18.128906 -29.609375 21.003906 -28.859375 22.984375 -27.359375 C 24.972656 -25.867188 25.96875 -23.867188 25.96875 -21.359375 C 25.96875 -19.816406 25.578125 -18.34375 24.796875 -16.9375 C 24.015625 -15.53125 22.691406 -14.347656 20.828125 -13.390625 C 18.972656 -12.441406 16.507812 -11.96875 13.4375 -11.96875 Z M 13.8125 -28.8125 C 13.0625 -28.8125 12.507812 -28.710938 12.15625 -28.515625 C 11.8125 -28.316406 11.566406 -27.96875 11.421875 -27.46875 C 11.285156 -26.96875 11.21875 -26.210938 11.21875 -25.203125 L 11.21875 -12.8125 L 13.015625 -12.8125 C 15.285156 -12.8125 16.851562 -13.535156 17.71875 -14.984375 C 18.582031 -16.441406 19.015625 -18.410156 19.015625 -20.890625 C 19.015625 -23.597656 18.613281 -25.59375 17.8125 -26.875 C 17.019531 -28.164062 15.6875 -28.8125 13.8125 -28.8125 Z M 13.8125 -28.8125 "/></g></g></g><g fill="#002349" fill-opacity="1"><g transform="translate(172.694461, 46.212239)"><g><path d="M 23.28125 -5.4375 C 23.28125 -3.851562 23.378906 -2.039062 23.578125 0 C 21.765625 -0.0820312 18.707031 -0.125 14.40625 -0.125 C 8.65625 -0.125 4.328125 -0.0820312 1.421875 0 L 1.421875 -0.84375 C 2.367188 -0.894531 3.050781 -1.003906 3.46875 -1.171875 C 3.894531 -1.335938 4.179688 -1.65625 4.328125 -2.125 C 4.484375 -2.601562 4.5625 -3.375 4.5625 -4.4375 L 4.5625 -21.015625 C 4.5625 -22.078125 4.484375 -22.84375 4.328125 -23.3125 C 4.179688 -23.789062 3.890625 -24.113281 3.453125 -24.28125 C 3.023438 -24.445312 2.347656 -24.5625 1.421875 -24.625 L 1.421875 -25.453125 C 4.328125 -25.367188 8.65625 -25.328125 14.40625 -25.328125 C 18.3125 -25.328125 21.085938 -25.367188 22.734375 -25.453125 C 22.535156 -23.585938 22.4375 -21.914062 22.4375 -20.4375 C 22.4375 -19.34375 22.484375 -18.476562 22.578125 -17.84375 L 21.609375 -17.84375 C 21.191406 -20.238281 20.460938 -21.945312 19.421875 -22.96875 C 18.390625 -23.988281 16.96875 -24.5 15.15625 -24.5 L 13.609375 -24.5 C 12.878906 -24.5 12.332031 -24.4375 11.96875 -24.3125 C 11.613281 -24.1875 11.359375 -23.929688 11.203125 -23.546875 C 11.046875 -23.171875 10.96875 -22.582031 10.96875 -21.78125 L 10.96875 -13.234375 L 12.9375 -13.234375 C 14.21875 -13.234375 15.1875 -13.6875 15.84375 -14.59375 C 16.5 -15.5 16.941406 -16.550781 17.171875 -17.75 L 18.125 -17.75 C 18.039062 -16.800781 18 -15.710938 18 -14.484375 L 18 -12.8125 C 18 -11.550781 18.082031 -9.90625 18.25 -7.875 L 17.296875 -7.875 C 17.097656 -9.1875 16.65625 -10.265625 15.96875 -11.109375 C 15.289062 -11.960938 14.28125 -12.390625 12.9375 -12.390625 L 10.96875 -12.390625 L 10.96875 -3.6875 C 10.96875 -2.875 11.046875 -2.28125 11.203125 -1.90625 C 11.359375 -1.53125 11.613281 -1.28125 11.96875 -1.15625 C 12.332031 -1.03125 12.878906 -0.96875 13.609375 -0.96875 L 15.40625 -0.96875 C 17.394531 -0.96875 18.953125 -1.535156 20.078125 -2.671875 C 21.210938 -3.816406 22 -5.742188 22.4375 -8.453125 L 23.40625 -8.453125 C 23.320312 -7.671875 23.28125 -6.664062 23.28125 -5.4375 Z M 23.28125 -5.4375 "/></g></g></g><g fill="#002349" fill-opacity="1"><g transform="translate(199.746234, 46.212239)"><g><path d="M 23.953125 -3.515625 C 24.765625 -1.785156 25.644531 -0.894531 26.59375 -0.84375 L 26.59375 0 C 25.25 -0.0820312 23.421875 -0.125 21.109375 -0.125 C 18.117188 -0.125 15.910156 -0.0820312 14.484375 0 L 14.484375 -0.84375 C 15.410156 -0.894531 16.09375 -1.039062 16.53125 -1.28125 C 16.976562 -1.519531 17.203125 -1.914062 17.203125 -2.46875 C 17.203125 -2.96875 17.023438 -3.597656 16.671875 -4.359375 L 14.578125 -9.125 L 5.78125 -9.125 L 5.28125 -8 C 4.5 -6.15625 4.109375 -4.71875 4.109375 -3.6875 C 4.109375 -2.738281 4.414062 -2.039062 5.03125 -1.59375 C 5.644531 -1.144531 6.550781 -0.894531 7.75 -0.84375 L 7.75 0 C 6.15625 -0.0820312 4.550781 -0.125 2.9375 -0.125 C 1.425781 -0.125 0.296875 -0.0820312 -0.453125 0 L -0.453125 -0.84375 C 0.210938 -0.976562 0.832031 -1.398438 1.40625 -2.109375 C 1.976562 -2.828125 2.582031 -3.894531 3.21875 -5.3125 L 12.0625 -25.546875 C 12.28125 -25.515625 12.597656 -25.5 13.015625 -25.5 C 13.460938 -25.5 13.785156 -25.515625 13.984375 -25.546875 Z M 14.203125 -9.96875 L 10.171875 -19.140625 L 6.15625 -9.96875 Z M 14.203125 -9.96875 "/></g></g></g><g fill="#002349" fill-opacity="1"><g transform="translate(227.551756, 46.212239)"><g><path d="M 27.046875 -3.390625 C 27.578125 -2.691406 28.035156 -2.160156 28.421875 -1.796875 C 28.816406 -1.429688 29.3125 -1.113281 29.90625 -0.84375 L 29.90625 0 C 27.976562 -0.0820312 25.835938 -0.125 23.484375 -0.125 C 21.503906 -0.125 19.609375 -0.0820312 17.796875 0 L 17.796875 -0.84375 C 18.691406 -0.863281 19.316406 -0.9375 19.671875 -1.0625 C 20.035156 -1.1875 20.21875 -1.378906 20.21875 -1.640625 C 20.21875 -1.890625 20.066406 -2.25 19.765625 -2.71875 L 14.28125 -10.59375 C 13.800781 -11.257812 13.320312 -11.765625 12.84375 -12.109375 C 12.375 -12.460938 11.75 -12.65625 10.96875 -12.6875 L 10.96875 -4.4375 C 10.96875 -3.375 11.046875 -2.601562 11.203125 -2.125 C 11.359375 -1.65625 11.644531 -1.335938 12.0625 -1.171875 C 12.476562 -1.003906 13.160156 -0.894531 14.109375 -0.84375 L 14.109375 0 C 12.679688 -0.0820312 10.617188 -0.125 7.921875 -0.125 C 5.015625 -0.125 2.847656 -0.0820312 1.421875 0 L 1.421875 -0.84375 C 2.367188 -0.894531 3.050781 -1.003906 3.46875 -1.171875 C 3.894531 -1.335938 4.179688 -1.65625 4.328125 -2.125 C 4.484375 -2.601562 4.5625 -3.375 4.5625 -4.4375 L 4.5625 -21.015625 C 4.5625 -22.078125 4.484375 -22.84375 4.328125 -23.3125 C 4.179688 -23.789062 3.890625 -24.113281 3.453125 -24.28125 C 3.023438 -24.445312 2.347656 -24.5625 1.421875 -24.625 L 1.421875 -25.453125 C 2.847656 -25.367188 5.015625 -25.328125 7.921875 -25.328125 C 10.617188 -25.328125 12.679688 -25.367188 14.109375 -25.453125 L 14.109375 -24.625 C 13.160156 -24.5625 12.476562 -24.445312 12.0625 -24.28125 C 11.644531 -24.113281 11.359375 -23.789062 11.203125 -23.3125 C 11.046875 -22.84375 10.96875 -22.078125 10.96875 -21.015625 L 10.96875 -13.53125 C 12.164062 -13.632812 13.265625 -13.9375 14.265625 -14.4375 C 15.273438 -14.945312 16.351562 -15.742188 17.5 -16.828125 L 20.0625 -19.4375 C 21.144531 -20.488281 21.6875 -21.445312 21.6875 -22.3125 C 21.6875 -22.988281 21.394531 -23.535156 20.8125 -23.953125 C 20.226562 -24.367188 19.472656 -24.609375 18.546875 -24.671875 L 18.546875 -25.453125 C 20.554688 -25.367188 22.707031 -25.328125 25 -25.328125 C 26.476562 -25.328125 27.71875 -25.367188 28.71875 -25.453125 L 28.71875 -24.671875 C 27.75 -24.441406 26.816406 -24.054688 25.921875 -23.515625 C 25.023438 -22.972656 24.0625 -22.210938 23.03125 -21.234375 L 17.875 -16.15625 Z M 27.046875 -3.390625 "/></g></g></g><g fill="#002349" fill-opacity="1"><g transform="translate(258.916677, 46.212239)"><g/></g></g><g fill="#002349" fill-opacity="1"><g transform="translate(270.22336, 46.212239)"><g><path d="M 35.296875 -25.328125 C 36.753906 -25.328125 37.882812 -25.367188 38.6875 -25.453125 L 38.6875 -24.625 C 37.15625 -24.0625 35.859375 -22.332031 34.796875 -19.4375 L 27.765625 0.078125 C 27.566406 0.0546875 27.242188 0.046875 26.796875 0.046875 C 26.378906 0.046875 26.0625 0.0546875 25.84375 0.078125 L 19.5625 -15.328125 L 13.40625 0.078125 C 13.175781 0.0546875 12.851562 0.046875 12.4375 0.046875 C 12.019531 0.046875 11.695312 0.0546875 11.46875 0.078125 L 2.140625 -21.9375 C 1.378906 -23.664062 0.5 -24.5625 -0.5 -24.625 L -0.5 -25.453125 C 0.8125 -25.367188 2.640625 -25.328125 4.984375 -25.328125 C 7.722656 -25.328125 9.757812 -25.367188 11.09375 -25.453125 L 11.09375 -24.625 C 9.695312 -24.539062 9 -23.96875 9 -22.90625 C 9 -22.375 9.140625 -21.773438 9.421875 -21.109375 L 15.109375 -6.875 L 19.046875 -16.546875 L 16.875 -21.9375 C 16.507812 -22.832031 16.085938 -23.492188 15.609375 -23.921875 C 15.140625 -24.359375 14.679688 -24.59375 14.234375 -24.625 L 14.234375 -25.453125 C 15.515625 -25.367188 17.34375 -25.328125 19.71875 -25.328125 C 22.570312 -25.328125 24.695312 -25.367188 26.09375 -25.453125 L 26.09375 -24.625 C 25.164062 -24.5625 24.5 -24.410156 24.09375 -24.171875 C 23.6875 -23.941406 23.484375 -23.546875 23.484375 -22.984375 C 23.484375 -22.484375 23.625 -21.859375 23.90625 -21.109375 L 29.234375 -6.78125 L 32.53125 -16.125 C 33.34375 -18.300781 33.75 -20.046875 33.75 -21.359375 C 33.75 -22.472656 33.46875 -23.28125 32.90625 -23.78125 C 32.351562 -24.28125 31.546875 -24.5625 30.484375 -24.625 L 30.484375 -25.453125 C 32.078125 -25.367188 33.679688 -25.328125 35.296875 -25.328125 Z M 35.296875 -25.328125 "/></g></g></g><g fill="#002349" fill-opacity="1"><g transform="translate(310.214575, 46.212239)"><g><path d="M 23.28125 -5.4375 C 23.28125 -3.851562 23.378906 -2.039062 23.578125 0 C 21.765625 -0.0820312 18.707031 -0.125 14.40625 -0.125 C 8.65625 -0.125 4.328125 -0.0820312 1.421875 0 L 1.421875 -0.84375 C 2.367188 -0.894531 3.050781 -1.003906 3.46875 -1.171875 C 3.894531 -1.335938 4.179688 -1.65625 4.328125 -2.125 C 4.484375 -2.601562 4.5625 -3.375 4.5625 -4.4375 L 4.5625 -21.015625 C 4.5625 -22.078125 4.484375 -22.84375 4.328125 -23.3125 C 4.179688 -23.789062 3.890625 -24.113281 3.453125 -24.28125 C 3.023438 -24.445312 2.347656 -24.5625 1.421875 -24.625 L 1.421875 -25.453125 C 4.328125 -25.367188 8.65625 -25.328125 14.40625 -25.328125 C 18.3125 -25.328125 21.085938 -25.367188 22.734375 -25.453125 C 22.535156 -23.585938 22.4375 -21.914062 22.4375 -20.4375 C 22.4375 -19.34375 22.484375 -18.476562 22.578125 -17.84375 L 21.609375 -17.84375 C 21.191406 -20.238281 20.460938 -21.945312 19.421875 -22.96875 C 18.390625 -23.988281 16.96875 -24.5 15.15625 -24.5 L 13.609375 -24.5 C 12.878906 -24.5 12.332031 -24.4375 11.96875 -24.3125 C 11.613281 -24.1875 11.359375 -23.929688 11.203125 -23.546875 C 11.046875 -23.171875 10.96875 -22.582031 10.96875 -21.78125 L 10.96875 -13.234375 L 12.9375 -13.234375 C 14.21875 -13.234375 15.1875 -13.6875 15.84375 -14.59375 C 16.5 -15.5 16.941406 -16.550781 17.171875 -17.75 L 18.125 -17.75 C 18.039062 -16.800781 18 -15.710938 18 -14.484375 L 18 -12.8125 C 18 -11.550781 18.082031 -9.90625 18.25 -7.875 L 17.296875 -7.875 C 17.097656 -9.1875 16.65625 -10.265625 15.96875 -11.109375 C 15.289062 -11.960938 14.28125 -12.390625 12.9375 -12.390625 L 10.96875 -12.390625 L 10.96875 -3.6875 C 10.96875 -2.875 11.046875 -2.28125 11.203125 -1.90625 C 11.359375 -1.53125 11.613281 -1.28125 11.96875 -1.15625 C 12.332031 -1.03125 12.878906 -0.96875 13.609375 -0.96875 L 15.40625 -0.96875 C 17.394531 -0.96875 18.953125 -1.535156 20.078125 -2.671875 C 21.210938 -3.816406 22 -5.742188 22.4375 -8.453125 L 23.40625 -8.453125 C 23.320312 -7.671875 23.28125 -6.664062 23.28125 -5.4375 Z M 23.28125 -5.4375 "/></g></g></g><g fill="#002349" fill-opacity="1"><g transform="translate(337.266347, 46.212239)"><g><path d="M 16.15625 -13.5625 C 19.675781 -13.195312 22.160156 -12.425781 23.609375 -11.25 C 25.066406 -10.082031 25.796875 -8.625 25.796875 -6.875 C 25.796875 -4.71875 24.832031 -3.03125 22.90625 -1.8125 C 20.976562 -0.601562 18.226562 0 14.65625 0 C 13.875 0 13.203125 -0.015625 12.640625 -0.046875 C 10.742188 -0.0976562 8.90625 -0.125 7.125 -0.125 C 4.632812 -0.125 2.734375 -0.0820312 1.421875 0 L 1.421875 -0.84375 C 2.367188 -0.894531 3.050781 -1.003906 3.46875 -1.171875 C 3.894531 -1.335938 4.179688 -1.65625 4.328125 -2.125 C 4.484375 -2.601562 4.5625 -3.375 4.5625 -4.4375 L 4.5625 -21.015625 C 4.5625 -22.078125 4.484375 -22.84375 4.328125 -23.3125 C 4.179688 -23.789062 3.894531 -24.113281 3.46875 -24.28125 C 3.050781 -24.445312 2.367188 -24.5625 1.421875 -24.625 L 1.421875 -25.453125 C 2.734375 -25.367188 4.601562 -25.328125 7.03125 -25.328125 L 11.8125 -25.375 C 12.363281 -25.40625 12.988281 -25.421875 13.6875 -25.421875 C 17.039062 -25.421875 19.535156 -24.921875 21.171875 -23.921875 C 22.804688 -22.929688 23.625 -21.519531 23.625 -19.6875 C 23.625 -18.257812 23.035156 -17.035156 21.859375 -16.015625 C 20.679688 -14.992188 18.78125 -14.207031 16.15625 -13.65625 Z M 13.15625 -24.625 C 12.539062 -24.625 12.078125 -24.523438 11.765625 -24.328125 C 11.460938 -24.128906 11.253906 -23.78125 11.140625 -23.28125 C 11.023438 -22.78125 10.96875 -22.023438 10.96875 -21.015625 L 10.96875 -13.65625 L 12.359375 -13.65625 C 14.140625 -13.65625 15.367188 -14.140625 16.046875 -15.109375 C 16.734375 -16.085938 17.078125 -17.457031 17.078125 -19.21875 C 17.078125 -21.03125 16.769531 -22.382812 16.15625 -23.28125 C 15.550781 -24.175781 14.550781 -24.625 13.15625 -24.625 Z M 13.1875 -0.96875 C 15.226562 -0.96875 16.722656 -1.472656 17.671875 -2.484375 C 18.617188 -3.503906 19.09375 -5.019531 19.09375 -7.03125 C 19.09375 -8.988281 18.609375 -10.460938 17.640625 -11.453125 C 16.679688 -12.441406 15.15625 -12.9375 13.0625 -12.9375 L 10.96875 -12.9375 L 10.96875 -4.4375 C 10.96875 -3.4375 11.023438 -2.695312 11.140625 -2.21875 C 11.253906 -1.738281 11.460938 -1.410156 11.765625 -1.234375 C 12.078125 -1.054688 12.550781 -0.96875 13.1875 -0.96875 Z M 13.1875 -0.96875 "/></g></g></g><g fill="#002349" fill-opacity="1"><g transform="translate(159.86688, 96.149178)"><g><path d="M 13.1875 -29.640625 C 18.1875 -29.640625 21.898438 -28.390625 24.328125 -25.890625 C 26.753906 -23.398438 27.96875 -19.820312 27.96875 -15.15625 C 27.96875 -12.113281 27.375 -9.453125 26.1875 -7.171875 C 25 -4.898438 23.273438 -3.132812 21.015625 -1.875 C 18.753906 -0.625 16.019531 0 12.8125 0 C 12.394531 0 11.835938 -0.0078125 11.140625 -0.03125 C 10.441406 -0.0625 9.722656 -0.0820312 8.984375 -0.09375 C 8.242188 -0.113281 7.566406 -0.125 6.953125 -0.125 C 5.972656 -0.125 5.007812 -0.113281 4.0625 -0.09375 C 3.113281 -0.0820312 2.347656 -0.0507812 1.765625 0 L 1.765625 -0.84375 C 2.710938 -0.894531 3.425781 -1.003906 3.90625 -1.171875 C 4.394531 -1.335938 4.722656 -1.671875 4.890625 -2.171875 C 5.066406 -2.679688 5.15625 -3.4375 5.15625 -4.4375 L 5.15625 -25.203125 C 5.15625 -26.242188 5.066406 -27.003906 4.890625 -27.484375 C 4.722656 -27.972656 4.394531 -28.304688 3.90625 -28.484375 C 3.425781 -28.671875 2.710938 -28.78125 1.765625 -28.8125 L 1.765625 -29.640625 C 2.347656 -29.617188 3.113281 -29.585938 4.0625 -29.546875 C 5.007812 -29.503906 5.945312 -29.492188 6.875 -29.515625 C 7.84375 -29.546875 8.941406 -29.570312 10.171875 -29.59375 C 11.398438 -29.625 12.40625 -29.640625 13.1875 -29.640625 Z M 12.140625 -28.890625 C 10.859375 -28.890625 10.019531 -28.648438 9.625 -28.171875 C 9.238281 -27.703125 9.046875 -26.742188 9.046875 -25.296875 L 9.046875 -4.359375 C 9.046875 -2.898438 9.25 -1.929688 9.65625 -1.453125 C 10.0625 -0.984375 10.90625 -0.75 12.1875 -0.75 C 15.226562 -0.75 17.585938 -1.300781 19.265625 -2.40625 C 20.941406 -3.507812 22.113281 -5.117188 22.78125 -7.234375 C 23.445312 -9.359375 23.78125 -11.941406 23.78125 -14.984375 C 23.78125 -18.117188 23.410156 -20.710938 22.671875 -22.765625 C 21.929688 -24.816406 20.71875 -26.347656 19.03125 -27.359375 C 17.34375 -28.378906 15.046875 -28.890625 12.140625 -28.890625 Z M 12.140625 -28.890625 "/></g></g></g><g fill="#002349" fill-opacity="1"><g transform="translate(194.331224, 96.149178)"><g><path d="M 11.390625 -22.15625 C 13.847656 -22.15625 15.765625 -21.40625 17.140625 -19.90625 C 18.523438 -18.414062 19.21875 -16.09375 19.21875 -12.9375 L 4.4375 -12.9375 L 4.390625 -13.734375 L 15.203125 -13.734375 C 15.253906 -15.097656 15.140625 -16.359375 14.859375 -17.515625 C 14.585938 -18.679688 14.148438 -19.613281 13.546875 -20.3125 C 12.941406 -21.007812 12.164062 -21.359375 11.21875 -21.359375 C 9.9375 -21.359375 8.800781 -20.710938 7.8125 -19.421875 C 6.820312 -18.140625 6.226562 -16.101562 6.03125 -13.3125 L 6.15625 -13.15625 C 6.101562 -12.726562 6.0625 -12.265625 6.03125 -11.765625 C 6 -11.265625 5.984375 -10.765625 5.984375 -10.265625 C 5.984375 -8.359375 6.289062 -6.722656 6.90625 -5.359375 C 7.519531 -3.992188 8.320312 -2.953125 9.3125 -2.234375 C 10.300781 -1.523438 11.328125 -1.171875 12.390625 -1.171875 C 13.234375 -1.171875 14.03125 -1.300781 14.78125 -1.5625 C 15.53125 -1.832031 16.226562 -2.273438 16.875 -2.890625 C 17.519531 -3.503906 18.078125 -4.328125 18.546875 -5.359375 L 19.390625 -5.03125 C 19.078125 -4.101562 18.570312 -3.207031 17.875 -2.34375 C 17.175781 -1.476562 16.296875 -0.769531 15.234375 -0.21875 C 14.179688 0.320312 12.957031 0.59375 11.5625 0.59375 C 9.550781 0.59375 7.828125 0.132812 6.390625 -0.78125 C 4.953125 -1.707031 3.847656 -2.988281 3.078125 -4.625 C 2.304688 -6.257812 1.921875 -8.140625 1.921875 -10.265625 C 1.921875 -12.710938 2.3125 -14.820312 3.09375 -16.59375 C 3.875 -18.375 4.976562 -19.742188 6.40625 -20.703125 C 7.832031 -21.671875 9.492188 -22.15625 11.390625 -22.15625 Z M 11.390625 -22.15625 "/></g></g></g><g fill="#002349" fill-opacity="1"><g transform="translate(219.708641, 96.149178)"><g><path d="M 8.703125 -22.15625 C 9.828125 -22.15625 10.78125 -21.972656 11.5625 -21.609375 C 12.34375 -21.242188 12.914062 -20.910156 13.28125 -20.609375 C 14.195312 -19.847656 14.753906 -20.347656 14.953125 -22.109375 L 15.90625 -22.109375 C 15.851562 -21.328125 15.8125 -20.398438 15.78125 -19.328125 C 15.757812 -18.253906 15.75 -16.804688 15.75 -14.984375 L 14.78125 -14.984375 C 14.613281 -16.023438 14.328125 -17.03125 13.921875 -18 C 13.515625 -18.976562 12.921875 -19.78125 12.140625 -20.40625 C 11.359375 -21.039062 10.34375 -21.359375 9.09375 -21.359375 C 8.113281 -21.359375 7.296875 -21.082031 6.640625 -20.53125 C 5.984375 -19.988281 5.65625 -19.1875 5.65625 -18.125 C 5.65625 -17.289062 5.90625 -16.570312 6.40625 -15.96875 C 6.90625 -15.375 7.5625 -14.816406 8.375 -14.296875 C 9.1875 -13.785156 10.066406 -13.222656 11.015625 -12.609375 C 12.078125 -11.929688 13.039062 -11.242188 13.90625 -10.546875 C 14.769531 -9.847656 15.457031 -9.082031 15.96875 -8.25 C 16.488281 -7.414062 16.75 -6.425781 16.75 -5.28125 C 16.75 -3.988281 16.410156 -2.910156 15.734375 -2.046875 C 15.066406 -1.179688 14.195312 -0.523438 13.125 -0.078125 C 12.050781 0.367188 10.875 0.59375 9.59375 0.59375 C 8.976562 0.59375 8.394531 0.539062 7.84375 0.4375 C 7.300781 0.34375 6.78125 0.195312 6.28125 0 C 6 -0.132812 5.710938 -0.300781 5.421875 -0.5 C 5.128906 -0.695312 4.84375 -0.90625 4.5625 -1.125 C 4.28125 -1.351562 4.023438 -1.347656 3.796875 -1.109375 C 3.578125 -0.867188 3.414062 -0.398438 3.3125 0.296875 L 2.34375 0.296875 C 2.394531 -0.597656 2.4375 -1.6875 2.46875 -2.96875 C 2.5 -4.257812 2.515625 -5.960938 2.515625 -8.078125 L 3.46875 -8.078125 C 3.664062 -6.515625 3.945312 -5.144531 4.3125 -3.96875 C 4.675781 -2.800781 5.25 -1.890625 6.03125 -1.234375 C 6.8125 -0.578125 7.898438 -0.25 9.296875 -0.25 C 9.859375 -0.25 10.421875 -0.375 10.984375 -0.625 C 11.554688 -0.875 12.035156 -1.289062 12.421875 -1.875 C 12.816406 -2.46875 13.015625 -3.253906 13.015625 -4.234375 C 13.015625 -5.460938 12.566406 -6.46875 11.671875 -7.25 C 10.785156 -8.03125 9.660156 -8.851562 8.296875 -9.71875 C 7.285156 -10.351562 6.335938 -10.992188 5.453125 -11.640625 C 4.578125 -12.285156 3.867188 -13.007812 3.328125 -13.8125 C 2.785156 -14.625 2.515625 -15.601562 2.515625 -16.75 C 2.515625 -18.007812 2.800781 -19.035156 3.375 -19.828125 C 3.945312 -20.617188 4.707031 -21.203125 5.65625 -21.578125 C 6.601562 -21.960938 7.617188 -22.15625 8.703125 -22.15625 Z M 8.703125 -22.15625 "/></g></g></g><g fill="#002349" fill-opacity="1"><g transform="translate(242.615411, 96.149178)"><g><path d="M 5.984375 -32.03125 C 6.710938 -32.03125 7.34375 -31.765625 7.875 -31.234375 C 8.40625 -30.703125 8.671875 -30.078125 8.671875 -29.359375 C 8.671875 -28.628906 8.40625 -28 7.875 -27.46875 C 7.34375 -26.9375 6.710938 -26.671875 5.984375 -26.671875 C 5.265625 -26.671875 4.640625 -26.9375 4.109375 -27.46875 C 3.578125 -28 3.3125 -28.628906 3.3125 -29.359375 C 3.3125 -30.078125 3.578125 -30.703125 4.109375 -31.234375 C 4.640625 -31.765625 5.265625 -32.03125 5.984375 -32.03125 Z M 8.171875 -22.03125 L 8.171875 -3.890625 C 8.171875 -2.722656 8.410156 -1.925781 8.890625 -1.5 C 9.378906 -1.082031 10.195312 -0.875 11.34375 -0.875 L 11.34375 0 C 10.875 -0.03125 10.15625 -0.0664062 9.1875 -0.109375 C 8.226562 -0.148438 7.257812 -0.171875 6.28125 -0.171875 C 5.332031 -0.171875 4.367188 -0.148438 3.390625 -0.109375 C 2.410156 -0.0664062 1.6875 -0.03125 1.21875 0 L 1.21875 -0.875 C 2.363281 -0.875 3.175781 -1.082031 3.65625 -1.5 C 4.144531 -1.925781 4.390625 -2.722656 4.390625 -3.890625 L 4.390625 -17 C 4.390625 -18.257812 4.164062 -19.1875 3.71875 -19.78125 C 3.28125 -20.382812 2.445312 -20.6875 1.21875 -20.6875 L 1.21875 -21.5625 C 2.101562 -21.476562 2.96875 -21.4375 3.8125 -21.4375 C 4.625 -21.4375 5.398438 -21.484375 6.140625 -21.578125 C 6.878906 -21.679688 7.554688 -21.832031 8.171875 -22.03125 Z M 8.171875 -22.03125 "/></g></g></g><g fill="#002349" fill-opacity="1"><g transform="translate(259.073401, 96.149178)"><g><path d="M 8.921875 7.875 C 7.441406 7.875 6.046875 7.71875 4.734375 7.40625 C 3.421875 7.101562 2.363281 6.625 1.5625 5.96875 C 0.769531 5.3125 0.375 4.476562 0.375 3.46875 C 0.375 2.5 0.765625 1.664062 1.546875 0.96875 C 2.328125 0.269531 3.390625 -0.257812 4.734375 -0.625 L 4.984375 0.046875 C 4.367188 0.234375 3.878906 0.617188 3.515625 1.203125 C 3.148438 1.796875 2.96875 2.457031 2.96875 3.1875 C 2.96875 4.46875 3.5625 5.445312 4.75 6.125 C 5.9375 6.8125 7.476562 7.15625 9.375 7.15625 C 10.632812 7.15625 11.863281 6.992188 13.0625 6.671875 C 14.257812 6.359375 15.25 5.820312 16.03125 5.0625 C 16.8125 4.3125 17.203125 3.320312 17.203125 2.09375 C 17.203125 1.175781 16.875 0.414062 16.21875 -0.1875 C 15.570312 -0.789062 14.285156 -1.09375 12.359375 -1.09375 L 9.25 -1.09375 C 8.363281 -1.09375 7.5 -1.160156 6.65625 -1.296875 C 5.820312 -1.429688 5.140625 -1.722656 4.609375 -2.171875 C 4.078125 -2.617188 3.8125 -3.304688 3.8125 -4.234375 C 3.8125 -5.179688 4.203125 -6.09375 4.984375 -6.96875 C 5.765625 -7.851562 7.203125 -8.753906 9.296875 -9.671875 L 9.796875 -9.296875 C 8.847656 -8.796875 8.023438 -8.285156 7.328125 -7.765625 C 6.628906 -7.253906 6.28125 -6.648438 6.28125 -5.953125 C 6.28125 -5.054688 6.953125 -4.609375 8.296875 -4.609375 L 13.53125 -4.609375 C 14.695312 -4.609375 15.773438 -4.4375 16.765625 -4.09375 C 17.753906 -3.757812 18.554688 -3.226562 19.171875 -2.5 C 19.785156 -1.78125 20.09375 -0.835938 20.09375 0.328125 C 20.09375 1.640625 19.675781 2.867188 18.84375 4.015625 C 18.007812 5.160156 16.757812 6.085938 15.09375 6.796875 C 13.4375 7.515625 11.378906 7.875 8.921875 7.875 Z M 9.125 -8.921875 C 7.757812 -8.921875 6.519531 -9.148438 5.40625 -9.609375 C 4.289062 -10.066406 3.410156 -10.785156 2.765625 -11.765625 C 2.117188 -12.742188 1.796875 -14 1.796875 -15.53125 C 1.796875 -17.070312 2.117188 -18.328125 2.765625 -19.296875 C 3.410156 -20.273438 4.289062 -20.992188 5.40625 -21.453125 C 6.519531 -21.921875 7.757812 -22.15625 9.125 -22.15625 C 10.519531 -22.15625 11.769531 -21.921875 12.875 -21.453125 C 13.976562 -20.992188 14.847656 -20.273438 15.484375 -19.296875 C 16.128906 -18.328125 16.453125 -17.070312 16.453125 -15.53125 C 16.453125 -14 16.128906 -12.742188 15.484375 -11.765625 C 14.847656 -10.785156 13.976562 -10.066406 12.875 -9.609375 C 11.769531 -9.148438 10.519531 -8.921875 9.125 -8.921875 Z M 9.125 -9.671875 C 10.1875 -9.671875 11.015625 -10.085938 11.609375 -10.921875 C 12.210938 -11.765625 12.515625 -13.300781 12.515625 -15.53125 C 12.515625 -17.769531 12.210938 -19.304688 11.609375 -20.140625 C 11.015625 -20.972656 10.1875 -21.390625 9.125 -21.390625 C 8.09375 -21.390625 7.269531 -20.972656 6.65625 -20.140625 C 6.039062 -19.304688 5.734375 -17.769531 5.734375 -15.53125 C 5.734375 -13.300781 6.039062 -11.765625 6.65625 -10.921875 C 7.269531 -10.085938 8.09375 -9.671875 9.125 -9.671875 Z M 15.15625 -18.671875 L 14.40625 -18.96875 C 14.789062 -19.914062 15.457031 -20.753906 16.40625 -21.484375 C 17.363281 -22.210938 18.359375 -22.578125 19.390625 -22.578125 C 20.117188 -22.578125 20.703125 -22.375 21.140625 -21.96875 C 21.585938 -21.5625 21.8125 -20.953125 21.8125 -20.140625 C 21.8125 -19.273438 21.582031 -18.664062 21.125 -18.3125 C 20.664062 -17.96875 20.195312 -17.796875 19.71875 -17.796875 C 19.300781 -17.796875 18.910156 -17.941406 18.546875 -18.234375 C 18.179688 -18.523438 17.972656 -18.992188 17.921875 -19.640625 C 17.867188 -20.285156 18.066406 -21.109375 18.515625 -22.109375 L 19.046875 -21.984375 C 17.878906 -21.535156 17.039062 -21.066406 16.53125 -20.578125 C 16.03125 -20.085938 15.570312 -19.453125 15.15625 -18.671875 Z M 15.15625 -18.671875 "/></g></g></g><g fill="#002349" fill-opacity="1"><g transform="translate(285.372068, 96.149178)"><g><path d="M 15.28125 -22.15625 C 16.34375 -22.15625 17.226562 -22.015625 17.9375 -21.734375 C 18.65625 -21.453125 19.25 -21.0625 19.71875 -20.5625 C 20.25 -20 20.625 -19.296875 20.84375 -18.453125 C 21.070312 -17.617188 21.1875 -16.492188 21.1875 -15.078125 L 21.1875 -3.890625 C 21.1875 -2.722656 21.429688 -1.925781 21.921875 -1.5 C 22.410156 -1.082031 23.226562 -0.875 24.375 -0.875 L 24.375 0 C 23.894531 -0.03125 23.164062 -0.0664062 22.1875 -0.109375 C 21.21875 -0.148438 20.269531 -0.171875 19.34375 -0.171875 C 18.425781 -0.171875 17.523438 -0.148438 16.640625 -0.109375 C 15.765625 -0.0664062 15.101562 -0.03125 14.65625 0 L 14.65625 -0.875 C 15.65625 -0.875 16.363281 -1.082031 16.78125 -1.5 C 17.207031 -1.925781 17.421875 -2.722656 17.421875 -3.890625 L 17.421875 -16 C 17.421875 -16.863281 17.347656 -17.65625 17.203125 -18.375 C 17.066406 -19.101562 16.753906 -19.691406 16.265625 -20.140625 C 15.773438 -20.585938 15.03125 -20.8125 14.03125 -20.8125 C 12.851562 -20.8125 11.820312 -20.472656 10.9375 -19.796875 C 10.0625 -19.128906 9.378906 -18.21875 8.890625 -17.0625 C 8.410156 -15.90625 8.171875 -14.613281 8.171875 -13.1875 L 8.171875 -3.890625 C 8.171875 -2.722656 8.378906 -1.925781 8.796875 -1.5 C 9.210938 -1.082031 9.921875 -0.875 10.921875 -0.875 L 10.921875 0 C 10.484375 -0.03125 9.820312 -0.0664062 8.9375 -0.109375 C 8.0625 -0.148438 7.160156 -0.171875 6.234375 -0.171875 C 5.316406 -0.171875 4.367188 -0.148438 3.390625 -0.109375 C 2.410156 -0.0664062 1.6875 -0.03125 1.21875 0 L 1.21875 -0.875 C 2.363281 -0.875 3.175781 -1.082031 3.65625 -1.5 C 4.144531 -1.925781 4.390625 -2.722656 4.390625 -3.890625 L 4.390625 -17 C 4.390625 -18.257812 4.164062 -19.1875 3.71875 -19.78125 C 3.28125 -20.382812 2.445312 -20.6875 1.21875 -20.6875 L 1.21875 -21.5625 C 2.101562 -21.476562 2.96875 -21.4375 3.8125 -21.4375 C 4.625 -21.4375 5.398438 -21.484375 6.140625 -21.578125 C 6.878906 -21.679688 7.554688 -21.832031 8.171875 -22.03125 L 8.171875 -17.078125 C 8.890625 -18.984375 9.898438 -20.304688 11.203125 -21.046875 C 12.503906 -21.785156 13.863281 -22.15625 15.28125 -22.15625 Z M 15.28125 -22.15625 "/></g></g></g><g fill="#002349" fill-opacity="1"><g transform="translate(314.560133, 96.149178)"><g><path d="M 8.703125 -22.15625 C 9.828125 -22.15625 10.78125 -21.972656 11.5625 -21.609375 C 12.34375 -21.242188 12.914062 -20.910156 13.28125 -20.609375 C 14.195312 -19.847656 14.753906 -20.347656 14.953125 -22.109375 L 15.90625 -22.109375 C 15.851562 -21.328125 15.8125 -20.398438 15.78125 -19.328125 C 15.757812 -18.253906 15.75 -16.804688 15.75 -14.984375 L 14.78125 -14.984375 C 14.613281 -16.023438 14.328125 -17.03125 13.921875 -18 C 13.515625 -18.976562 12.921875 -19.78125 12.140625 -20.40625 C 11.359375 -21.039062 10.34375 -21.359375 9.09375 -21.359375 C 8.113281 -21.359375 7.296875 -21.082031 6.640625 -20.53125 C 5.984375 -19.988281 5.65625 -19.1875 5.65625 -18.125 C 5.65625 -17.289062 5.90625 -16.570312 6.40625 -15.96875 C 6.90625 -15.375 7.5625 -14.816406 8.375 -14.296875 C 9.1875 -13.785156 10.066406 -13.222656 11.015625 -12.609375 C 12.078125 -11.929688 13.039062 -11.242188 13.90625 -10.546875 C 14.769531 -9.847656 15.457031 -9.082031 15.96875 -8.25 C 16.488281 -7.414062 16.75 -6.425781 16.75 -5.28125 C 16.75 -3.988281 16.410156 -2.910156 15.734375 -2.046875 C 15.066406 -1.179688 14.195312 -0.523438 13.125 -0.078125 C 12.050781 0.367188 10.875 0.59375 9.59375 0.59375 C 8.976562 0.59375 8.394531 0.539062 7.84375 0.4375 C 7.300781 0.34375 6.78125 0.195312 6.28125 0 C 6 -0.132812 5.710938 -0.300781 5.421875 -0.5 C 5.128906 -0.695312 4.84375 -0.90625 4.5625 -1.125 C 4.28125 -1.351562 4.023438 -1.347656 3.796875 -1.109375 C 3.578125 -0.867188 3.414062 -0.398438 3.3125 0.296875 L 2.34375 0.296875 C 2.394531 -0.597656 2.4375 -1.6875 2.46875 -2.96875 C 2.5 -4.257812 2.515625 -5.960938 2.515625 -8.078125 L 3.46875 -8.078125 C 3.664062 -6.515625 3.945312 -5.144531 4.3125 -3.96875 C 4.675781 -2.800781 5.25 -1.890625 6.03125 -1.234375 C 6.8125 -0.578125 7.898438 -0.25 9.296875 -0.25 C 9.859375 -0.25 10.421875 -0.375 10.984375 -0.625 C 11.554688 -0.875 12.035156 -1.289062 12.421875 -1.875 C 12.816406 -2.46875 13.015625 -3.253906 13.015625 -4.234375 C 13.015625 -5.460938 12.566406 -6.46875 11.671875 -7.25 C 10.785156 -8.03125 9.660156 -8.851562 8.296875 -9.71875 C 7.285156 -10.351562 6.335938 -10.992188 5.453125 -11.640625 C 4.578125 -12.285156 3.867188 -13.007812 3.328125 -13.8125 C 2.785156 -14.625 2.515625 -15.601562 2.515625 -16.75 C 2.515625 -18.007812 2.800781 -19.035156 3.375 -19.828125 C 3.945312 -20.617188 4.707031 -21.203125 5.65625 -21.578125 C 6.601562 -21.960938 7.617188 -22.15625 8.703125 -22.15625 Z M 8.703125 -22.15625 "/></g></g></g></g></g></g></svg>